PathFileType	4	(X/Y/Z)	C:\Users\Biomechanik\SynologyDrive\AlexP\Athlete_03\Athlete_3_25_03_31\Squat_bw_02\marker_experimental.trc
DataRate	CameraRate	NumFrames	NumMarkers	Units	OrigDataRate	OrigDataStartFrame	OrigNumFrames
200.000000	200.000000	4	55	mm	200.000000	75	604
Frame#	Time	BL			BR			GLAB			RFHD			LFHD			C7			T6			SPINMOL			SPINM2			SPINM3			T12			BELTOL			BELT2			BELT3			SACROL			SACR2			SACR3			LTHOL			LTH2			LTH3			LSHAOL			LSHA2			LSHA3			LHEE			LTOE			LM5			RTHOL			RTH2			RTH3			RSHAOL			RSHA2			RSHA3			RHEE			RTOE			RM5			STRN			XIPH			LACR			LUAOL			LUA2			LUA3			LLAOL			LLA2			LLA3			LWRR			LWRU			RACR			RUAOL			RUA2			RUA3			RLAOL			RLA2			RLA3			RWRR			RWRU			
		X1	Y1	Z1	X2	Y2	Z2	X3	Y3	Z3	X4	Y4	Z4	X5	Y5	Z5	X6	Y6	Z6	X7	Y7	Z7	X8	Y8	Z8	X9	Y9	Z9	X10	Y10	Z10	X11	Y11	Z11	X12	Y12	Z12	X13	Y13	Z13	X14	Y14	Z14	X15	Y15	Z15	X16	Y16	Z16	X17	Y17	Z17	X18	Y18	Z18	X19	Y19	Z19	X20	Y20	Z20	X21	Y21	Z21	X22	Y22	Z22	X23	Y23	Z23	X24	Y24	Z24	X25	Y25	Z25	X26	Y26	Z26	X27	Y27	Z27	X28	Y28	Z28	X29	Y29	Z29	X30	Y30	Z30	X31	Y31	Z31	X32	Y32	Z32	X33	Y33	Z33	X34	Y34	Z34	X35	Y35	Z35	X36	Y36	Z36	X37	Y37	Z37	X38	Y38	Z38	X39	Y39	Z39	X40	Y40	Z40	X41	Y41	Z41	X42	Y42	Z42	X43	Y43	Z43	X44	Y44	Z44	X45	Y45	Z45	X46	Y46	Z46	X47	Y47	Z47	X48	Y48	Z48	X49	Y49	Z49	X50	Y50	Z50	X51	Y51	Z51	X52	Y52	Z52	X53	Y53	Z53	X54	Y54	Z54	X55	Y55	Z55	

76	0.375	960.7022094726562	36.21215057373059	-1933.5546875	1063.17919921875	32.89078521728515	86.64543914794922	431.1271057128906	1535.090209960938	-1196.714721679688	381.4603271484375	1561.130615234375	-1133.453735351562	387.2478942871094	1558.63525390625	-1268.809814453125	195.10888671875	1392.930419921875	-1204.614135742188	110.1785430908203	1240.66162109375	-1212.151000976562	98.18083953857422	1206.175659179688	-1233.027709960938	91.74296569824219	1198.791625976562	-1183.639770507812	85.87119293212891	1142.891723632812	-1218.450927734375	78.72644805908203	1079.080444335938	-1216.51025390625	52.23973083496094	1057.6220703125	-1232.09619140625	53.29615783691406	1054.801513671875	-1181.940795898438	32.03542327880859	998.1628417968751	-1210.78173828125	14.98297309875488	913.4641113281251	-1233.03662109375	17.50347328186035	910.9558105468751	-1181.564697265625	3.736635208129883	852.3668212890626	-1209.414672851562	130.9115753173828	649.4219360351564	-1455.138061523438	115.8576736450195	574.4674072265626	-1434.035400390625	152.7519073486328	592.7203979492189	-1463.45263671875	164.0603332519531	332.7788391113282	-1549.486572265625	118.051025390625	270.9227294921876	-1529.412231445312	163.39111328125	270.7206420898439	-1552.327392578125	105.817512512207	68.21887207031259	-1480.786987304688	313.8968505859375	51.88559341430673	-1545.118896484375	241.5795135498047	26.3588809967042	-1626.751953125	119.1693649291992	653.8720092773439	-974.0138549804688	179.38330078125	628.3392944335938	-927.875732421875	148.5863647460938	601.8052368164064	-956.3048706054688	146.0689392089844	348.2748718261719	-882.8029174804688	167.8486938476562	275.9310607910157	-861.752685546875	129.3951110839844	288.5214233398438	-890.349609375	91.32199096679688	64.23872375488287	-964.3307495117188	286.4414672851562	47.64305877685553	-877.0936279296875	201.4851531982422	39.08319473266607	-802.3206176757812	351.6458435058594	1271.49169921875	-1208.689331054688	342.12060546875	1123.464965820312	-1208.65576171875	255.5634613037109	1367.291625976562	-1370.489624023438	176.9310150146484	1260.524658203125	-1481.558959960938	136.1207580566406	1210.814331054688	-1496.676879882812	177.5027770996094	1213.469116210938	-1526.689575195312	203.1510314941406	1153.308837890625	-1615.667358398438	281.4801635742188	1144.862426757812	-1623.011474609375	254.4517822265625	1187.338500976562	-1618.492309570312	327.5718688964844	1261.774780273438	-1618.414916992188	327	1263.882568359375	-1540.559814453125	253.0840454101562	1361.164428710938	-1054.009155273438	181.3963775634766	1256.70263671875	-945.1256713867186	175.1635131835938	1211.37353515625	-897.1500854492186	143.7909393310547	1203.115844726562	-938.0761108398436	220.7400054931641	1166.489868164062	-793.7138671874999	225.7731323242188	1245.829711914062	-799.1622314453124	262.900390625	1212.833740234375	-790.8897094726561	304.6758728027344	1297.509033203125	-800.6315307617186	313.7757263183594	1295.513061523438	-878.0771484374999	
77	0.38	960.702392578125	36.21206283569348	-1933.554565429688	1063.17919921875	32.89093017578124	86.64563751220703	432.6760864257812	1532.884765625	-1196.773681640625	383.06982421875	1559.020751953125	-1133.509521484375	388.8240051269531	1556.4873046875	-1268.86376953125	196.2377624511719	1391.393310546875	-1204.629760742188	110.641975402832	1239.543701171875	-1212.142578125	98.4974365234375	1205.126831054688	-1233.0146484375	92.02798461914062	1197.729125976562	-1183.650756835938	85.90281677246094	1141.886962890625	-1218.449951171875	78.44532775878906	1078.0927734375	-1216.519897460938	51.85417556762695	1056.67724609375	-1232.09912109375	52.91177749633789	1053.860107421875	-1181.946166992188	31.42779541015625	997.2882080078126	-1210.780151367188	14.08612060546875	912.3389892578126	-1233.022094726562	16.62996864318848	909.8480834960939	-1181.546630859375	2.785719394683838	851.2651367187501	-1209.364868164062	130.8358154296875	648.5172119140626	-1455.838989257812	116.1761856079102	573.4153442382814	-1435.037475585938	152.9772033691406	591.9484252929689	-1464.353515625	164.7393646240234	332.6153259277345	-1550.410522460938	118.5621871948242	270.9180297851564	-1530.22705078125	163.9336242675781	270.5520324707032	-1553.077026367188	105.8301239013672	68.24035644531259	-1480.783447265625	313.8993530273438	51.87084197998056	-1545.139038085938	241.5733947753906	26.34165000915537	-1626.7685546875	119.1176834106445	652.8222045898439	-973.2742919921875	179.5099945068359	627.7669677734375	-927.11083984375	148.8492279052734	600.9704589843751	-955.4464111328125	146.8824615478516	348.1030273437501	-881.9263305664062	168.4936370849609	275.6400756835938	-861.1185913085938	130.0507965087891	288.4039306640626	-889.652099609375	91.32137298583984	64.24819183349615	-964.334716796875	286.4438781738281	47.64054489135748	-877.0952758789062	201.4869689941406	39.09566116333013	-802.316162109375	352.3247680664062	1269.351684570312	-1208.6796875	342.1756591796875	1121.355712890625	-1208.642578125	256.6781311035156	1365.539794921875	-1370.480712890625	177.7550201416016	1259.058837890625	-1481.6201171875	136.7710113525391	1209.517211914062	-1496.79443359375	178.2143707275391	1211.993530273438	-1526.744506835938	203.7537078857422	1151.734252929688	-1615.686767578125	282.053466796875	1143.00048828125	-1622.93994140625	255.17724609375	1185.575439453125	-1618.455322265625	328.5591735839844	1259.751953125	-1618.296630859375	327.9240417480469	1261.841064453125	-1540.43310546875	254.1193237304688	1359.470458984375	-1054.048217773438	182.0954742431641	1255.312377929688	-945.1120605468749	175.6994476318359	1210.032470703125	-897.0908813476561	144.2947998046875	1201.854858398438	-938.0259399414061	221.1590270996094	1165.05810546875	-793.6538696289061	226.4577331542969	1244.384521484375	-799.1485595703124	263.4746398925781	1211.260620117188	-790.8692016601561	305.5394287109375	1295.78857421875	-800.6688232421874	314.6175537109375	1293.720825195312	-878.1210327148436	
78	0.385	960.70263671875	36.21210861206067	-1933.554443359375	1063.179321289062	32.89108276367187	86.6458740234375	434.2311096191406	1530.64892578125	-1196.833740234375	384.6867980957031	1556.88037109375	-1133.5654296875	390.4061584472656	1554.309936523438	-1268.918823242188	197.3717346191406	1389.83154296875	-1204.644653320312	111.1063232421875	1238.40576171875	-1212.133666992188	98.81816101074219	1204.058227539062	-1233.001586914062	92.31170654296875	1196.645263671875	-1183.662841796875	85.93534851074219	1140.863891601562	-1218.449951171875	78.16712951660156	1077.0869140625	-1216.5302734375	51.47030258178711	1055.709838867188	-1232.106079101562	52.52706909179688	1052.896850585938	-1181.95166015625	30.82478332519531	996.3935546875001	-1210.778686523438	13.19131088256836	911.2057495117189	-1233.010375976562	15.75835037231445	908.7276000976564	-1181.531127929688	1.832612991333008	850.1546020507814	-1209.322387695312	130.7443237304688	647.5914916992189	-1456.509521484375	116.4940185546875	572.3451538085939	-1435.993896484375	153.1883697509766	591.1593017578126	-1465.22216796875	165.4100646972656	332.4477844238282	-1551.31884765625	119.0684051513672	270.906707763672	-1531.029052734375	164.4702453613281	270.3804321289064	-1553.81396484375	105.844856262207	68.26466369628915	-1480.776123046875	313.9028015136719	51.855079650879	-1545.158935546875	241.5673675537109	26.32484817504893	-1626.7841796875	119.0475845336914	651.7500000000001	-972.561767578125	179.6114349365234	627.17138671875	-926.3695678710938	149.0910339355469	600.1152343750001	-954.6149291992188	147.6862945556641	347.9297790527344	-881.06787109375	169.1226196289062	275.3514709472657	-860.4898681640625	130.6976623535156	288.2861022949219	-888.9695434570312	91.3201904296875	64.25897979736334	-964.3394775390625	286.4463806152344	47.63731002807623	-877.0986328125	201.4898071289062	39.10873413085942	-802.3131713867188	353.0012817382812	1267.1875	-1208.670776367188	342.2233276367188	1119.240356445312	-1208.627685546875	257.7968444824219	1363.7626953125	-1370.472778320312	178.5807952880859	1257.567993164062	-1481.678344726562	137.4218292236328	1208.195068359375	-1496.90673828125	178.9261169433594	1210.492309570312	-1526.79541015625	204.3504638671875	1150.132202148438	-1615.705200195312	282.6195068359375	1141.106201171875	-1622.864135742188	255.89794921875	1183.781127929688	-1618.416137695312	329.5441589355469	1257.693603515625	-1618.178833007812	328.8449096679688	1259.766845703125	-1540.306274414062	255.1592864990234	1357.74755859375	-1054.087158203125	182.798583984375	1253.893432617188	-945.1008911132811	176.236083984375	1208.661254882812	-897.0346679687499	144.7993927001953	1200.566650390625	-937.9807128906249	221.5761413574219	1163.589599609375	-793.6005249023436	227.1422271728516	1242.902465820312	-799.1358032226561	264.0476379394531	1209.6484375	-790.8535766601561	306.4046936035156	1294.028076171875	-800.7061157226561	315.4555053710938	1291.8955078125	-878.1654052734374	
79	0.39	960.7029418945312	36.2122268676759	-1933.554565429688	1063.179443359375	32.89125061035156	86.64614105224609	435.7918090820312	1528.383178710938	-1196.894897460938	386.3106384277344	1554.710327148438	-1133.622192382812	391.994384765625	1552.104125976562	-1268.97509765625	198.5102233886719	1388.245849609375	-1204.658813476562	111.5714492797852	1237.248413085938	-1212.124389648438	99.14352416992188	1202.969848632812	-1232.988647460938	92.594970703125	1195.541748046875	-1183.67529296875	85.96937561035156	1139.822875976562	-1218.450439453125	77.89243316650391	1076.063232421875	-1216.540405273438	51.08908843994141	1054.7197265625	-1232.115600585938	52.1427116394043	1051.911743164062	-1181.956176757812	30.2270679473877	995.4790039062501	-1210.776733398438	12.29858207702637	910.0645751953126	-1233.000732421875	14.88862037658691	907.5942993164064	-1181.517578125	0.878432035446167	849.0350952148439	-1209.287353515625	130.6352233886719	646.6451416015626	-1457.149658203125	116.8093795776367	571.2579956054689	-1436.9013671875	153.3835144042969	590.3534545898439	-1466.056884765625	166.0706481933594	332.2769470214845	-1552.209350585938	119.5688095092773	270.8890686035157	-1531.814697265625	164.9994812011719	270.2063903808595	-1554.536254882812	105.8615798950195	68.2916793823243	-1480.765014648438	313.9071655273438	51.83855438232431	-1545.178344726562	241.5614318847656	26.30861091613779	-1626.799072265625	118.9591064453125	650.6530151367189	-971.8768920898438	179.6859436035156	626.5503540039062	-925.6503295898438	149.3118896484375	599.2374267578126	-953.8106079101562	148.4809722900391	347.7546691894532	-880.2264404296875	169.7361755371094	275.0645446777344	-859.8655395507812	131.3365020751953	288.1678161621094	-888.3009643554688	91.31871795654297	64.27091979980474	-964.344970703125	286.4490356445312	47.63335800170904	-877.1040649414062	201.4938201904297	39.12227249145513	-802.3119506835938	353.6753845214844	1264.999633789062	-1208.66259765625	342.2643737792969	1117.116943359375	-1208.611206054688	258.9195251464844	1361.960693359375	-1370.465942382812	179.4085693359375	1256.052734375	-1481.734375	138.0736846923828	1206.8486328125	-1497.014282226562	179.6393890380859	1208.965698242188	-1526.842041015625	204.9409332275391	1148.503784179688	-1615.722900390625	283.17822265625	1139.18115234375	-1622.785034179688	256.61376953125	1181.957397460938	-1618.37548828125	330.5264587402344	1255.601440429688	-1618.062133789062	329.7618103027344	1257.66162109375	-1540.179565429688	256.2035217285156	1355.996704101562	-1054.12548828125	183.5059204101562	1252.446533203125	-945.0918579101561	176.7736206054688	1207.260864257812	-896.9816284179686	145.3047027587891	1199.25244140625	-937.9396362304686	221.9915008544922	1162.08544921875	-793.5535278320311	227.8263397216797	1241.38427734375	-799.1241455078124	264.6195983886719	1207.998657226562	-790.8428344726561	307.2716369628906	1292.228515625	-800.7435302734374	316.2899475097656	1290.037841796875	-878.2106933593749	
